<svg xmlns="http://www.w3.org/2000/svg" version="1.1" xmlns:xlink="http://www.w3.org/1999/xlink" xmlns:svgjs="http://svgjs.dev/svgjs" width="1440" height="560" preserveAspectRatio="none" viewBox="0 0 1440 560">
    <g mask="url(&quot;#SvgjsMask1000&quot;)" fill="none">
        <rect width="1440" height="560" x="0" y="0" fill="#1e3266"></rect>
        <path d="M1512 560L0 560 L0 280.02Q75.03 283.05, 72 358.09Q140.87 306.96, 192 375.83Q231.28 295.11, 312 334.39Q381.94 284.33, 432 354.28Q464.16 266.44, 552 298.6Q596.2 270.81, 624 315.01Q673.98 292.99, 696 342.97Q733.84 260.81, 816 298.65Q865.68 276.33, 888 326.02Q936.33 302.35, 960 350.68Q968.35 287.03, 1032 295.38Q1104.07 247.45, 1152 319.52Q1217.6 265.12, 1272 330.71Q1340.74 279.45, 1392 348.2Q1434.38 270.59, 1512 312.97z" fill="#182f5d"></path>
        <path d="M1512 560L0 560 L0 415.97Q23.31 367.29, 72 390.6Q115.13 361.73, 144 404.86Q165.75 354.62, 216 376.37Q241.12 329.49, 288 354.61Q343.15 337.76, 360 392.91Q417.42 378.33, 432 435.74Q435.37 367.11, 504 370.47Q531.37 325.84, 576 353.21Q660.96 318.17, 696 403.14Q776.63 363.77, 816 444.41Q836.2 344.62, 936 364.82Q964.75 321.57, 1008 350.33Q1057.72 328.05, 1080 377.77Q1131.02 356.79, 1152 407.81Q1202.84 338.64, 1272 389.48Q1359.08 356.56, 1392 443.63Q1441.64 373.27, 1512 422.91z" fill="#25467d"></path>
        <path d="M1488 560L0 560 L0 453.69Q77.79 411.48, 120 489.26Q125.51 422.76, 192 428.27Q257.58 373.85, 312 439.42Q387.44 394.86, 432 470.3Q461.73 428.03, 504 457.77Q577.64 411.41, 624 485.06Q639.55 428.62, 696 444.17Q723.33 399.5, 768 426.83Q866.07 404.89, 888 502.96Q923.02 417.98, 1008 452.99Q1057.41 382.4, 1128 431.82Q1193.4 425.22, 1200 490.62Q1212.74 431.36, 1272 444.1Q1296.64 396.74, 1344 421.38Q1397.33 402.71, 1416 456.04Q1442.51 410.55, 1488 437.06z" fill="#356cb1"></path>
        <path d="M1512 560L0 560 L0 502.79Q91.52 474.31, 120 565.82Q167.29 493.11, 240 540.4Q292.25 472.65, 360 524.91Q384.26 477.17, 432 501.44Q528.11 477.54, 552 573.65Q576.36 526, 624 550.36Q670.06 476.42, 744 522.49Q764.47 470.96, 816 491.42Q881.92 437.34, 936 503.26Q1009.37 456.63, 1056 530Q1072.1 474.1, 1128 490.19Q1200.24 442.43, 1248 514.68Q1289.06 483.74, 1320 524.8Q1377.34 510.13, 1392 567.47Q1443.8 499.26, 1512 551.06z" fill="white"></path>
    </g>
    <defs>
        <mask id="SvgjsMask1000">
            <rect width="1440" height="560" fill="#ffffff"></rect>
        </mask>
    </defs>
</svg>